# xmcd
#
# Track frame offsets: 
#        183
#        18113
#        54648
#        79248
#
# Disc length: 1235 seconds
#
# Revision: 5
# Processed by: cddbd v1.5.2PL0 Copyright (c) Steve Scherf et al.
# Submitted via: ExactAudioCopy v1.3
#
DISCID=2604d104
DTITLE=Black Box - Ride On Time
DYEAR=1989
DGENRE=House
TTITLE0=Ride On Time (Vocal)
TTITLE1=Ride On Time (The Original Deep Mix)
TTITLE2=Ride On Time (Garage Trip)
TTITLE3=Ride On Time (Piano Version)
EXTD=
EXTT0=
EXTT1=
EXTT2=
EXTT3=
PLAYORDER=
